<svg xml:space="preserve" viewBox="151.35532359081418 226.1778705636743 746.0876826722338 622.0960334029228" width="746.0876826722338" y="0px" x="0px" xmlns:xlink="http://www.w3.org/1999/xlink" xmlns="http://www.w3.org/2000/svg" id="Layer_1" version="1.1" style="max-height: 500px" height="622.0960334029228">
<path d="M382.165100,525.073425 &#10;&#9;C361.150238,561.453369 340.167297,597.432556 319.611511,633.654053 &#10;&#9;C316.050873,639.928284 312.214203,642.732910 304.772919,642.234192 &#10;&#9;C293.821838,641.500122 282.775330,642.315002 271.791290,641.896484 &#10;&#9;C266.134705,641.680969 262.403625,643.064514 260.048096,648.563904 &#10;&#9;C258.107971,653.093445 255.197449,657.207275 252.533920,661.822571 &#10;&#9;C255.336975,663.154175 257.842010,662.688232 260.232239,662.688660 &#10;&#9;C385.726624,662.711426 511.221313,662.816101 636.714722,662.466125 &#10;&#9;C645.890320,662.440552 651.944763,664.351746 655.144836,673.216370 &#10;&#9;C656.592834,677.227600 660.027893,680.328003 661.194336,685.396973 &#10;&#9;C511.760773,685.396973 362.674408,685.396973 213.763641,685.396973 &#10;&#9;C212.986206,683.395264 213.975723,682.344788 214.618469,681.233459 &#10;&#9;C225.878876,661.764465 237.214783,642.338684 248.362854,622.805664 &#10;&#9;C250.091751,619.776367 252.156677,618.709351 255.552872,618.744263 &#10;&#9;C269.217407,618.884766 282.885468,618.693237 296.549805,618.844788 &#10;&#9;C299.983673,618.882812 301.931213,617.697937 303.658020,614.702637 &#10;&#9;C334.944763,560.432617 366.366760,506.240662 397.709076,452.002686 &#10;&#9;C422.467224,409.158722 447.106537,366.245972 471.969116,323.462891 &#10;&#9;C474.019318,319.934937 474.185730,317.316406 471.955658,313.988129 &#10;&#9;C468.847046,309.348694 466.727814,304.048004 462.861572,299.682404 &#10;&#9;C459.470306,301.792328 458.442932,305.107941 456.832184,307.894043 &#10;&#9;C430.983002,352.605103 405.227203,397.370178 379.405701,442.097321 &#10;&#9;C350.252411,492.595612 321.028320,543.053101 291.937286,593.587158 &#10;&#9;C290.051270,596.863403 287.931519,598.453369 284.054474,598.297180 &#10;&#9;C277.604095,598.037354 271.135620,598.226379 264.040405,597.448425 &#10;&#9;C329.129761,482.042603 395.754822,367.863281 461.591705,253.418381 &#10;&#9;C464.487396,254.329315 465.000336,256.264740 465.882843,257.780884 &#10;&#9;C476.946991,276.788971 487.916199,295.852417 499.023468,314.835144 &#10;&#9;C500.638000,317.594452 500.699036,319.765350 499.045929,322.619354 &#10;&#9;C466.898132,378.122345 434.853210,433.684937 402.792816,489.238525 &#10;&#9;C395.964386,501.070709 389.158142,512.915649 382.165100,525.073425 &#10;z" stroke="none" opacity="1.000000" fill="#000000"/>
<path d="M548.508057,323.432190 &#10;&#9;C516.339905,379.139313 484.332031,434.516510 452.375885,489.923584 &#10;&#9;C424.081665,538.981445 395.811646,588.053406 367.650513,637.187744 &#10;&#9;C365.544891,640.861572 363.050110,642.324890 358.865295,642.131470 &#10;&#9;C352.457581,641.835327 346.026093,642.053711 338.018494,642.053711 &#10;&#9;C413.353424,511.543610 487.871887,382.447968 562.230774,253.628738 &#10;&#9;C564.910706,253.668854 565.256165,255.386734 565.959473,256.590790 &#10;&#9;C577.302002,276.010101 588.567749,295.474365 599.959412,314.864685 &#10;&#9;C601.612122,317.677734 601.437439,319.925873 599.805054,322.699677 &#10;&#9;C592.877563,334.471161 586.287598,346.442383 579.283203,358.166687 &#10;&#9;C577.275879,361.526520 577.494629,364.082825 579.372559,367.324890 &#10;&#9;C603.167786,408.404633 626.854919,449.546875 650.571594,490.672089 &#10;&#9;C681.611206,544.495544 712.589722,598.354431 743.738525,652.114624 &#10;&#9;C751.291260,665.149963 746.844788,662.401428 762.048523,662.692871 &#10;&#9;C765.375488,662.756653 768.707275,662.598816 772.035583,662.498840 &#10;&#9;C772.291748,662.491150 772.537292,662.130798 773.177185,661.629028 &#10;&#9;C768.534973,653.486023 763.904297,645.262024 759.179871,637.092102 &#10;&#9;C715.732727,561.959534 672.256287,486.843750 628.821350,411.704071 &#10;&#9;C620.068909,396.562927 611.518066,381.305023 602.720520,366.190430 &#10;&#9;C601.166016,363.519684 601.186829,361.465302 602.791016,358.879669 &#10;&#9;C606.436279,353.004089 609.810303,346.960236 613.986511,339.798218 &#10;&#9;C680.824707,455.456970 746.980957,569.935730 812.978088,684.139038 &#10;&#9;C811.048645,686.480774 809.263062,685.974365 807.676270,685.976562 &#10;&#9;C785.847046,686.007324 764.017334,685.922302 742.188904,686.056885 &#10;&#9;C738.403564,686.080200 736.112122,684.841064 734.192932,681.514709 &#10;&#9;C703.474243,628.274536 672.610413,575.118225 641.851746,521.901062 &#10;&#9;C612.177307,470.559845 582.625671,419.147522 552.875244,367.850464 &#10;&#9;C550.667847,364.044403 550.492004,361.218628 552.835815,357.392517 &#10;&#9;C559.533752,346.458191 565.622437,335.151276 572.289551,324.197144 &#10;&#9;C574.800720,320.071320 574.811157,316.744934 572.081360,312.806427 &#10;&#9;C569.177734,308.617004 566.826477,304.044647 563.782471,298.872223 &#10;&#9;C557.328186,306.810394 553.528320,315.299225 548.508057,323.432190 &#10;z" stroke="none" opacity="1.000000" fill="#000000"/>
<path d="M564.275391,474.655975 &#10;&#9;C552.147644,453.722717 540.319458,433.037964 528.201721,412.524200 &#10;&#9;C525.624390,408.161133 525.060364,404.673218 528.171021,400.311676 &#10;&#9;C531.602600,395.500122 534.286865,390.155548 538.234863,383.449646 &#10;&#9;C613.465576,513.797180 687.967529,642.881958 762.388672,771.826721 &#10;&#9;C760.231140,773.776550 758.494446,773.304382 756.902527,773.306458 &#10;&#9;C735.069580,773.335388 713.235901,773.234680 691.404236,773.398071 &#10;&#9;C687.568726,773.426758 685.351318,772.171387 683.467773,768.839783 &#10;&#9;C676.908997,757.238525 669.963806,745.855957 663.374390,734.271423 &#10;&#9;C661.520142,731.011597 659.451416,729.745300 655.504211,729.754333 &#10;&#9;C584.846313,729.917175 514.187927,729.883118 443.529663,729.889526 &#10;&#9;C404.040375,729.893066 364.546326,730.217346 325.065613,729.636108 &#10;&#9;C316.633118,729.511963 311.619537,731.682495 308.505798,739.347839 &#10;&#9;C307.040894,742.954102 304.648468,746.183716 302.607574,749.702637 &#10;&#9;C305.381683,751.149292 307.741943,750.582153 309.993622,750.582886 &#10;&#9;C420.658325,750.616333 531.323059,750.652222 641.987549,750.485107 &#10;&#9;C647.251953,750.477173 650.287354,752.075806 652.512085,756.707092 &#10;&#9;C655.014526,761.916626 658.102844,766.844727 661.407104,772.734375 &#10;&#9;C528.365967,772.734375 396.247223,772.734375 264.133240,772.734375 &#10;&#9;C263.280060,771.043274 264.388397,769.812317 265.105133,768.566406 &#10;&#9;C276.318298,749.072815 287.621429,729.630493 298.731079,710.078247 &#10;&#9;C300.448730,707.055298 302.727936,706.622375 305.745850,706.629700 &#10;&#9;C332.078491,706.693604 358.411346,706.676025 384.744141,706.676941 &#10;&#9;C479.075012,706.680176 573.405945,706.708069 667.736633,706.599670 &#10;&#9;C672.207581,706.594543 674.992981,707.642822 677.251770,711.856689 &#10;&#9;C683.073364,722.717224 689.682556,733.154541 695.550903,743.991699 &#10;&#9;C698.137085,748.767517 701.065308,751.343628 706.839600,750.738037 &#10;&#9;C712.046387,750.191956 717.355530,750.622803 723.496948,750.622803 &#10;&#9;C670.131653,658.118469 617.301575,566.541992 564.275391,474.655975 &#10;z" stroke="none" opacity="1.000000" fill="#000000"/>
<path d="M911.814941,94.276199 &#10;&#9;C912.801819,90.759460 912.885437,88.009682 911.316284,84.784897 &#10;&#9;C908.728088,79.465981 909.429138,74.161392 913.906860,69.688141 &#10;&#9;C921.886841,61.716377 929.656006,53.530098 937.749023,45.676430 &#10;&#9;C941.926819,41.622272 947.121216,40.481384 952.460510,43.325771 &#10;&#9;C955.535095,44.963680 958.321350,44.941547 961.534058,44.013214 &#10;&#9;C965.675110,42.816628 969.513733,44.003586 972.568604,46.979671 &#10;&#9;C978.999817,53.244930 985.387024,59.561028 991.621948,66.020691 &#10;&#9;C998.153503,72.787560 998.002563,78.371895 991.428162,84.992180 &#10;&#9;C978.561768,97.948402 965.721252,110.930412 952.818970,123.850807 &#10;&#9;C946.112732,130.566452 940.611389,130.428894 934.032288,123.757751 &#10;&#9;C928.197021,117.840820 922.313782,111.964737 916.275940,106.256584 &#10;&#9;C912.869385,103.036102 911.168335,99.376335 911.814941,94.276199 &#10;M933.191467,61.684055 &#10;&#9;C929.075684,65.802368 924.975952,69.936882 920.838257,74.033112 &#10;&#9;C918.276733,76.569016 917.625061,79.315315 919.479309,82.576759 &#10;&#9;C921.474243,86.085510 921.725708,89.775108 920.563599,93.666245 &#10;&#9;C919.748108,96.397026 920.373169,98.812531 922.541565,100.933449 &#10;&#9;C927.999207,106.271439 933.272583,111.797691 938.721863,117.144516 &#10;&#9;C940.426208,118.816765 942.176270,121.371918 945.029724,119.930222 &#10;&#9;C948.020386,118.419159 949.909363,115.712097 949.391907,112.185394 &#10;&#9;C948.565430,106.552109 950.345459,102.098160 954.569824,98.399086 &#10;&#9;C955.280945,97.776398 956.556213,97.226120 956.333313,95.790558 &#10;&#9;C945.887451,99.042091 938.830322,97.094978 934.254028,89.750084 &#10;&#9;C930.045044,82.994759 930.942749,74.408508 936.411987,69.109039 &#10;&#9;C942.454224,63.254414 950.535583,62.101841 956.916504,66.443558 &#10;&#9;C961.045776,69.253220 963.663086,73.090408 964.450134,78.253075 &#10;&#9;C965.202332,83.187668 963.127197,87.272896 961.282227,91.663574 &#10;&#9;C967.261597,85.127800 973.345581,79.525902 983.217285,81.186699 &#10;&#9;C985.192505,81.518997 987.319580,79.037308 988.279419,76.848686 &#10;&#9;C989.287537,74.549797 987.359070,73.143890 986.002197,71.759079 &#10;&#9;C980.529785,66.174088 974.887451,60.751804 969.522522,55.066898 &#10;&#9;C966.954895,52.346100 964.403625,51.021790 960.747803,52.659817 &#10;&#9;C958.725220,53.566040 956.159729,54.096420 954.428284,53.010296 &#10;&#9;C946.821899,48.238853 941.746582,51.515755 937.235718,57.686005 &#10;&#9;C936.268494,59.009026 934.882874,60.026237 933.191467,61.684055 &#10;M942.969055,123.786713 &#10;&#9;C941.818848,123.773483 940.593384,122.411522 939.310852,124.113365 &#10;&#9;C943.902710,127.530472 947.276123,124.794067 950.236755,121.928413 &#10;&#9;C963.620300,108.974213 976.954468,95.966202 990.118835,82.790131 &#10;&#9;C995.056396,77.848160 994.974243,73.806488 990.212708,68.913918 &#10;&#9;C983.834534,62.360126 977.253845,56.002338 970.716736,49.604702 &#10;&#9;C967.995483,46.941509 964.761414,45.981937 961.113342,47.431988 &#10;&#9;C957.909058,48.705658 955.018555,48.068939 951.990112,46.696232 &#10;&#9;C945.168762,43.604294 939.905212,45.838192 936.450623,53.067062 &#10;&#9;C937.808411,53.068596 938.501953,52.025188 939.206421,51.191803 &#10;&#9;C942.841125,46.891861 946.970276,45.743675 951.954346,48.868404 &#10;&#9;C955.245911,50.931995 958.687927,50.292156 962.063782,49.132561 &#10;&#9;C965.106995,48.087208 967.476868,48.828888 969.704895,51.127583 &#10;&#9;C975.840576,57.457939 982.120544,63.648228 988.302856,69.933807 &#10;&#9;C990.639404,72.309303 992.475037,75.055634 990.336121,78.359795 &#10;&#9;C988.213440,81.638985 986.267761,85.366821 981.099731,84.397644 &#10;&#9;C975.943604,83.430695 971.773865,85.237587 968.245728,89.248528 &#10;&#9;C964.736755,93.237564 960.911316,96.984291 956.946106,100.525291 &#10;&#9;C953.269531,103.808540 951.858337,107.672379 952.120239,112.496765 &#10;&#9;C952.464722,118.843834 949.928162,122.084297 942.969055,123.786713 &#10;M935.776367,85.682961 &#10;&#9;C939.244568,91.931313 944.776489,95.269745 950.061340,94.303818 &#10;&#9;C956.549927,93.117882 961.048340,88.389473 961.718323,81.786591 &#10;&#9;C962.321045,75.846031 959.560547,71.522171 954.547791,68.697472 &#10;&#9;C949.774902,66.007988 944.961060,66.498589 940.503662,69.584709 &#10;&#9;C935.561462,73.006470 933.939575,78.226898 935.776367,85.682961 &#10;M916.356018,92.178658 &#10;&#9;C916.638000,92.235374 916.920166,92.329803 917.201782,92.328102 &#10;&#9;C917.298706,92.327522 917.438049,92.100761 917.484009,91.954132 &#10;&#9;C919.406555,85.822334 913.020813,81.280746 914.651550,75.186188 &#10;&#9;C912.459229,78.332458 913.106750,81.295586 914.856689,84.068420 &#10;&#9;C916.362671,86.454697 916.829041,88.925713 916.356018,92.178658 &#10;M930.240662,115.329979 &#10;&#9;C932.698303,116.862488 933.780701,119.980148 937.016724,121.406288 &#10;&#9;C933.293579,117.825867 929.952148,114.612564 926.610779,111.399254 &#10;&#9;C926.361328,111.633858 926.111877,111.868454 925.862427,112.103050 &#10;&#9;C927.159729,113.014885 928.457092,113.926727 930.240662,115.329979 &#10;M929.010803,59.636581 &#10;&#9;C925.993408,62.346336 922.759338,64.857536 920.997925,68.721634 &#10;&#9;C923.920105,65.714783 928.196594,63.968452 929.010803,59.636581 &#10;z" stroke="none" opacity="1.000000" fill="#000000"/>
<path d="M94.396614,978.812378 &#10;&#9;C95.137390,981.473328 92.818031,982.534729 91.387360,983.782898 &#10;&#9;C88.483597,986.316101 85.943298,989.099487 83.507118,992.069214 &#10;&#9;C79.498169,996.956055 73.109024,997.494324 68.527649,993.127258 &#10;&#9;C61.067287,986.016113 53.844856,978.653259 46.592201,971.327148 &#10;&#9;C43.501915,968.205505 42.763275,964.376892 44.087196,960.236755 &#10;&#9;C44.821198,957.941528 45.348743,955.698364 44.121346,953.471802 &#10;&#9;C40.323353,946.581848 41.902546,940.770813 47.374046,935.508362 &#10;&#9;C55.029827,928.145264 62.483833,920.571350 70.185410,913.257446 &#10;&#9;C72.967270,910.615479 76.227516,908.520020 80.942917,910.935425 &#10;&#9;C68.272667,914.663696 62.595936,926.075745 53.537594,933.473755 &#10;&#9;C51.873550,934.832764 50.536938,936.584656 48.956490,938.055603 &#10;&#9;C44.898098,941.832886 43.970474,946.271667 46.463978,951.162842 &#10;&#9;C48.098660,954.369385 48.456005,957.491272 47.078529,960.755493 &#10;&#9;C45.569687,964.330933 46.638973,967.386108 49.109543,969.901001 &#10;&#9;C55.754601,976.665222 62.456680,983.380066 69.326584,989.914246 &#10;&#9;C73.724213,994.096863 76.752388,994.144775 81.580238,990.164246 &#10;&#9;C85.930275,986.577759 89.969574,982.614319 94.396614,978.812378 &#10;z" stroke="none" opacity="1.000000" fill="#000000"/>
<path d="M71.354256,922.329773 &#10;&#9;C64.969376,928.900391 58.907635,935.296082 52.612942,941.453613 &#10;&#9;C50.046043,943.964600 49.588455,946.403259 51.240742,949.454773 &#10;&#9;C53.237755,953.142944 53.756748,956.965088 52.214523,960.977966 &#10;&#9;C51.391121,963.120544 51.341084,965.116882 53.187706,966.935425 &#10;&#9;C59.342133,972.996216 65.387711,979.167908 71.562065,985.208069 &#10;&#9;C73.045731,986.659607 74.801323,988.780884 77.115196,987.000366 &#10;&#9;C79.234673,985.369507 81.830826,983.890137 81.340996,980.266235 &#10;&#9;C80.855705,976.675842 81.244308,973.091797 84.426498,970.393555 &#10;&#9;C82.269417,976.330078 87.566612,983.754333 80.106186,988.737366 &#10;&#9;C76.597153,991.081238 73.624443,991.278442 70.714867,988.457397 &#10;&#9;C64.154015,982.095947 57.747871,975.575012 51.268097,969.129700 &#10;&#9;C48.927471,966.801453 48.028130,964.088684 49.258320,960.949219 &#10;&#9;C50.702286,957.264221 50.363045,953.901794 48.225155,950.535156 &#10;&#9;C45.960312,946.968567 46.513718,943.540833 49.516838,940.584045 &#10;&#9;C57.566845,932.658081 65.631500,924.746887 73.717163,916.857239 &#10;&#9;C76.288078,914.348694 79.020775,913.859375 83.048988,917.174561 &#10;&#9;C77.773270,917.165283 73.960152,918.280579 71.354256,922.329773 &#10;z" stroke="none" opacity="1.000000" fill="#000000"/>
<path d="M670.665161,980.664795 &#10;&#9;C673.576050,978.122009 675.569946,974.984619 679.116821,973.549683 &#10;&#9;C679.745667,975.556641 678.364807,976.262756 677.510193,977.141724 &#10;&#9;C672.518799,982.275330 667.532776,987.416382 662.439575,992.448242 &#10;&#9;C657.733826,997.097534 652.008911,997.343872 647.360413,992.858398 &#10;&#9;C640.176758,985.926941 633.099243,978.876099 626.208984,971.654236 &#10;&#9;C623.331604,968.638245 622.025879,964.765198 623.606628,960.565552 &#10;&#9;C624.795959,957.405884 624.765625,954.678040 622.959229,951.591797 &#10;&#9;C620.060364,946.638916 621.509033,941.756714 625.080322,937.783630 &#10;&#9;C628.153076,934.365234 631.846497,931.504700 635.583252,928.692017 &#10;&#9;C634.183167,932.666992 630.959656,935.247070 628.241760,938.091736 &#10;&#9;C624.467834,942.041687 622.976379,945.976685 625.812134,951.084167 &#10;&#9;C627.392822,953.931274 627.649475,956.999451 626.589783,960.256653 &#10;&#9;C625.242798,964.397034 626.208435,967.988342 629.513062,971.122375 &#10;&#9;C636.033569,977.306641 642.216003,983.850159 648.794983,989.969116 &#10;&#9;C653.279175,994.139709 656.554504,993.981628 661.062256,989.925476 &#10;&#9;C664.278381,987.031616 667.301025,983.922729 670.665161,980.664795 &#10;z" stroke="none" opacity="1.000000" fill="#000000"/>
<path d="M627.506165,942.671631 &#10;&#9;C632.024292,936.603210 637.938110,932.541687 643.320557,927.857666 &#10;&#9;C641.184692,933.333618 636.355408,936.621826 632.614014,940.702087 &#10;&#9;C629.563232,944.029175 628.428955,946.795410 631.020691,950.749329 &#10;&#9;C632.969238,953.721863 633.007935,957.016846 631.773193,960.331970 &#10;&#9;C630.669617,963.295227 631.286133,965.713989 633.628235,967.981384 &#10;&#9;C639.360840,973.531189 644.870850,979.310791 650.598877,984.865479 &#10;&#9;C652.186462,986.404968 653.882935,988.399109 656.667358,986.999695 &#10;&#9;C659.454224,985.598938 661.000305,983.558838 660.787537,980.270142 &#10;&#9;C660.659424,978.289490 660.634521,976.233765 661.020569,974.303223 &#10;&#9;C661.714233,970.835083 663.252258,967.847046 667.735779,966.901489 &#10;&#9;C663.086853,971.696533 663.659973,977.291748 663.639404,983.141663 &#10;&#9;C663.618469,989.123596 654.237732,992.462280 649.905579,988.334473 &#10;&#9;C643.045593,981.797974 636.516541,974.915222 629.806030,968.220337 &#10;&#9;C627.216431,965.636841 627.807373,962.719238 628.945679,959.890320 &#10;&#9;C630.246033,956.658691 630.038879,953.737244 628.041382,950.921021 &#10;&#9;C626.262695,948.413330 625.704956,945.805603 627.506165,942.671631 &#10;z" stroke="none" opacity="1.000000" fill="#000000"/>
<path d="M74.166504,934.895752 &#10;&#9;C66.997849,940.860779 65.036438,946.062744 67.301811,952.791931 &#10;&#9;C68.414154,956.096130 70.523575,958.532715 73.605499,960.174744 &#10;&#9;C75.116997,960.980042 76.557121,961.919312 79.003616,963.379211 &#10;&#9;C68.562737,963.379517 61.619072,953.445862 64.130211,943.977295 &#10;&#9;C65.229836,939.830933 67.542503,936.389282 71.140335,934.031982 &#10;&#9;C71.947342,933.503235 73.979149,931.263733 74.166504,934.895752 &#10;z" stroke="none" opacity="1.000000" fill="#000000"/>
<path d="M646.083496,950.899536 &#10;&#9;C646.682312,952.961853 647.203064,954.661133 647.790833,956.579285 &#10;&#9;C642.895081,954.098267 641.853455,947.630859 645.669128,943.014648 &#10;&#9;C645.986755,945.718262 644.933838,948.219543 646.083496,950.899536 &#10;z" stroke="none" opacity="1.000000" fill="#000000"/>
<path d="M652.801147,962.893066 &#10;&#9;C651.613525,961.975891 650.562805,961.384766 650.098022,959.462769 &#10;&#9;C654.200623,961.467834 658.270935,962.150513 662.411194,962.746155 &#10;&#9;C659.291504,964.605164 656.212891,964.535034 652.801147,962.893066 &#10;z" stroke="none" opacity="1.000000" fill="#000000"/>
</svg>